<?xml version="1.0" standalone="no"?>
<!DOCTYPE svg PUBLIC "-//W3C//DTD SVG 20010904//EN"
 "http://www.w3.org/TR/2001/REC-SVG-20010904/DTD/svg10.dtd">
<svg version="1.0" xmlns="http://www.w3.org/2000/svg"
 width="512.000000pt" height="512.000000pt" viewBox="0 0 512.000000 512.000000"
 preserveAspectRatio="xMidYMid meet">
<metadata>
Created by potrace 1.11, written by Peter Selinger 2001-2013
</metadata>
<g transform="translate(0.000000,512.000000) scale(0.100000,-0.100000)"
fill="#000000" stroke="none">
<path d="M914 5110 c-23 -9 -53 -51 -60 -83 -5 -27 212 -682 238 -719 11 -16
31 -31 46 -35 15 -3 148 -7 297 -7 l270 -1 1 -1277 1 -1278 -31 -1 c-17 0
-112 -1 -211 -2 l-180 0 -5 504 c-3 277 -6 505 -8 506 -1 1 -14 14 -29 28 -20
18 -39 25 -68 25 -36 0 -78 -25 -377 -225 -186 -123 -345 -236 -354 -250 -16
-24 -17 -81 -17 -658 0 -679 0 -673 52 -776 49 -96 172 -186 287 -211 34 -7
280 -10 759 -8 l710 3 75 36 c116 56 190 140 229 258 21 63 21 76 18 932 l-2
867 -24 26 c-35 37 -81 43 -143 17 -28 -12 -53 -20 -54 -18 -3 3 18 64 81 237
36 98 39 119 17 155 -10 17 -82 80 -160 140 -77 60 -139 112 -136 114 2 2 81
5 176 5 183 2 202 6 232 51 15 23 16 93 14 810 l-3 785 -28 27 -27 28 -783 2
c-430 1 -791 -2 -803 -7z"/>
<path d="M2834 5110 c-11 -4 -29 -21 -40 -37 -18 -27 -19 -55 -20 -798 -2
-826 -3 -812 48 -845 18 -11 63 -15 196 -16 94 -1 171 -5 170 -10 -1 -5 -63
-58 -137 -117 -75 -59 -142 -117 -149 -127 -24 -34 -15 -81 46 -243 65 -173
66 -165 -17 -131 -63 26 -118 9 -145 -45 -19 -38 -17 -2655 2 -2688 15 -27 62
-53 95 -53 13 0 416 197 897 437 636 319 879 445 893 465 20 26 20 43 20 483
0 480 0 486 -46 514 -56 36 -61 34 -546 -208 -253 -127 -464 -231 -468 -231
-5 0 -7 802 -7 1783 1 1434 -1 1788 -12 1814 -24 61 -36 63 -416 62 -189 0
-352 -4 -364 -9z"/>
</g>
</svg>
